<?xml version="1.0" encoding="UTF-8" standalone="no"?>
<svg
   xmlns:dc="http://purl.org/dc/elements/1.1/"
   xmlns:cc="http://creativecommons.org/ns#"
   xmlns:rdf="http://www.w3.org/1999/02/22-rdf-syntax-ns#"
   xmlns:svg="http://www.w3.org/2000/svg"
   xmlns="http://www.w3.org/2000/svg"
   xmlns:sodipodi="http://sodipodi.sourceforge.net/DTD/sodipodi-0.dtd"
   xmlns:inkscape="http://www.inkscape.org/namespaces/inkscape"
   width="24"
   height="24"
   viewBox="0 0 24 24"
   version="1.1"
   id="svg8"
   sodipodi:docname="view-refresh.svg"
   inkscape:version="0.92.4 (5da689c313, 2019-01-14)">
  <metadata
     id="metadata14">
    <rdf:RDF>
      <cc:Work
         rdf:about="">
        <dc:format>image/svg+xml</dc:format>
        <dc:type
           rdf:resource="http://purl.org/dc/dcmitype/StillImage" />
      </cc:Work>
    </rdf:RDF>
  </metadata>
  <defs
     id="defs12" />
  <sodipodi:namedview
     pagecolor="#ffffff"
     bordercolor="#666666"
     borderopacity="1"
     objecttolerance="10"
     gridtolerance="10"
     guidetolerance="10"
     inkscape:pageopacity="0"
     inkscape:pageshadow="2"
     inkscape:window-width="1600"
     inkscape:window-height="860"
     id="namedview10"
     showgrid="false"
     inkscape:zoom="9.8333333"
     inkscape:cx="12"
     inkscape:cy="12"
     inkscape:window-x="0"
     inkscape:window-y="0"
     inkscape:window-maximized="1"
     inkscape:current-layer="svg8" />
  <g
     transform="matrix(0.76755722,0,0,0.76755722,6.4237288,6.8304702)"
     id="g6"
     style="fill:#536076">
    <path
       d="M 7,14 C 3.1340068,14 0,10.865993 0,7 0,3.1340068 3.1340068,0 7,0 8.9756701,0 10.760175,0.81847727 12.032933,2.1348516 L 12.452,4 12.197157,3.9997404 C 11.159691,2.2064795 9.2207399,1 7,1 3.6862915,1 1,3.6862915 1,7 c 0,3.313709 2.6862915,6 6,6 2.6121814,0 4.83448,-1.669288 5.658346,-3.9993141 L 13.710121,9 C 12.849572,11.891489 10.171021,14 7,14 Z"
       id="path2"
       inkscape:connector-curvature="0" />
    <polygon
       points="9.214,5.518 12.75,1.982 16.286,5.518 "
       transform="rotate(135,12.75,3.75)"
       id="polygon4" />
  </g>
  <rect
     style="fill:#000000;fill-opacity:0;stroke:#536076;stroke-opacity:1"
     id="rect12"
     width="17"
     height="17"
     x="3.5"
     y="3.5"
     ry="3.1640031" />
</svg>
